<?xml version="1.0" standalone="no"?>
<!DOCTYPE svg PUBLIC "-//W3C//DTD SVG 20010904//EN"
 "http://www.w3.org/TR/2001/REC-SVG-20010904/DTD/svg10.dtd">
<svg version="1.0" xmlns="http://www.w3.org/2000/svg"
 width="233.000000pt" height="233.000000pt" viewBox="0 0 233.000000 233.000000"
 preserveAspectRatio="xMidYMid meet">
<metadata>
Created by potrace 1.11, written by Peter Selinger 2001-2013
</metadata>
<g transform="translate(0.000000,233.000000) scale(0.100000,-0.100000)"
fill="#000000" stroke="none">
<path d="M1528 1647 c12 -13 22 -35 22 -50 0 -19 8 -31 30 -42 35 -18 88 -92
74 -103 -5 -5 -35 -18 -66 -31 l-58 -23 -57 23 c-76 30 -79 33 -60 62 14 22
14 24 -13 34 -26 10 -29 8 -41 -19 -9 -23 -17 -28 -33 -24 -76 18 -157 27
-195 21 -54 -8 -101 -50 -101 -91 0 -43 37 -110 98 -175 l55 -60 -37 -38 c-32
-33 -35 -39 -19 -44 10 -2 25 -8 35 -12 11 -4 21 2 34 24 22 38 30 38 74 0 30
-25 37 -39 46 -97 7 -37 10 -70 7 -74 -6 -11 -62 -10 -106 3 -29 8 -42 7 -53
-2 -20 -16 -99 -16 -118 1 -29 24 -18 -19 12 -50 44 -43 132 -48 262 -15 24 6
28 1 55 -54 15 -33 46 -77 67 -98 34 -34 45 -38 88 -38 42 0 54 5 85 35 20 19
50 62 67 95 17 33 31 61 32 62 1 2 37 -4 80 -12 43 -8 80 -15 83 -15 2 0 -5
12 -16 26 -12 15 -21 34 -21 44 0 14 -8 16 -57 12 l-56 -5 7 34 c4 19 9 53 13
77 5 34 14 49 43 72 21 17 42 30 46 30 12 0 52 -63 59 -93 6 -22 13 -26 58
-29 29 -2 54 -3 56 -2 6 5 -41 68 -87 116 l-45 47 55 60 c61 65 98 132 98 175
0 17 -11 38 -28 56 -39 39 -97 46 -202 26 -46 -9 -85 -15 -86 -13 -1 1 -14 27
-29 57 -43 87 -102 140 -156 140 l-22 0 21 -23z m-201 -246 c-3 -15 -9 -52
-13 -80 -6 -47 -11 -56 -53 -87 l-46 -36 -27 33 c-61 73 -73 135 -33 174 21
22 33 25 101 25 l77 0 -6 -29z m578 4 c33 -32 32 -68 -4 -130 -45 -78 -51 -81
-102 -41 -42 31 -45 38 -57 105 -6 39 -12 76 -12 81 0 6 33 10 75 10 67 0 79
-3 100 -25z m-449 -15 c32 -12 29 -16 -48 -58 l-57 -32 6 33 c3 17 10 43 15
56 9 24 21 24 84 1z m234 -10 c4 -14 10 -37 14 -53 l6 -27 -58 32 c-33 18 -60
38 -60 43 -2 11 55 35 77 32 8 -1 18 -13 21 -27z m-80 -65 c111 -65 114 -70
107 -156 -7 -81 -6 -80 -114 -136 l-73 -38 -72 38 c-110 57 -109 55 -115 139
-5 68 -3 75 18 94 22 19 158 104 168 104 2 0 39 -20 81 -45z m-314 -183 c-3
-3 -15 3 -26 13 l-20 18 22 25 23 24 3 -37 c2 -20 1 -40 -2 -43z m497 16 c-25
-28 -33 -22 -33 24 l0 41 25 -23 c23 -22 24 -25 8 -42z m-363 -152 l55 -29
-35 -13 c-57 -20 -66 -17 -78 25 -7 21 -12 42 -12 45 0 9 -1 9 70 -28z m266
17 c-3 -10 -8 -30 -12 -45 -7 -31 -20 -33 -73 -14 l-34 12 54 32 c63 36 72 38
65 15z m-102 -98 l57 -25 -21 -30 c-24 -34 -68 -60 -100 -60 -32 0 -76 26
-100 60 l-21 30 53 24 c67 31 65 31 132 1z"/>
<path d="M1478 1234 c-51 -27 -50 -102 2 -129 77 -40 155 12 136 90 -7 27 -52
55 -88 55 -13 -1 -35 -7 -50 -16z"/>
<path d="M1412 1634 c-52 -36 3 -110 62 -83 45 21 45 72 -1 90 -32 12 -35 12
-61 -7z"/>
<path d="M185 1498 c-31 -24 -31 -33 -1 -63 18 -18 35 -24 68 -23 76 1 76 1
88 -49 7 -27 13 -73 14 -103 2 -46 -2 -59 -21 -77 -29 -28 -29 -37 4 -62 25
-20 26 -25 24 -109 -2 -110 6 -165 24 -158 7 2 16 -2 19 -10 6 -16 37 -19 52
-4 8 8 127 30 194 34 24 2 155 39 195 56 11 4 36 14 55 21 40 15 98 70 101 97
3 32 -1 38 -39 60 -58 32 -153 51 -297 58 -72 3 -137 8 -145 11 -15 5 51 33
79 33 8 0 33 8 55 19 23 10 67 29 99 41 83 32 111 86 69 128 -40 40 -230 84
-462 106 -146 14 -149 14 -175 -6z m373 -108 c40 -5 79 -13 85 -17 7 -4 25 -8
40 -9 52 -3 52 -20 0 -39 -26 -10 -70 -28 -97 -41 -28 -13 -56 -24 -63 -24 -7
0 -22 -5 -33 -12 -10 -7 -22 -9 -26 -5 -4 4 -9 40 -12 82 -5 86 -14 81 106 65z
m37 -295 c165 -7 295 -30 295 -53 0 -16 -93 -55 -164 -69 -39 -7 -91 -18 -116
-23 -25 -5 -69 -12 -97 -15 l-53 -5 -1 37 c0 21 -2 58 -4 83 -3 53 1 64 24 55
9 -3 61 -8 116 -10z"/>
<path d="M1072 1048 c-54 -26 -30 -98 33 -98 65 0 87 72 30 98 -30 14 -33 14
-63 0z"/>
<path d="M1913 970 c-26 -11 -41 -56 -26 -79 28 -45 110 -37 128 13 8 25 6 31
-18 52 -30 25 -48 28 -84 14z"/>
</g>
</svg>
